<?xml version="1.0" encoding="UTF-8" standalone="no"?>
<svg
   xmlns:dc="http://purl.org/dc/elements/1.1/"
   xmlns:cc="http://creativecommons.org/ns#"
   xmlns:rdf="http://www.w3.org/1999/02/22-rdf-syntax-ns#"
   xmlns:svg="http://www.w3.org/2000/svg"
   xmlns="http://www.w3.org/2000/svg"
   xmlns:sodipodi="http://sodipodi.sourceforge.net/DTD/sodipodi-0.dtd"
   xmlns:inkscape="http://www.inkscape.org/namespaces/inkscape"
   viewBox="0 0 400 400"
   version="1.1"
   id="svg16"
   sodipodi:docname="Twitter_Logo_WhiteOnBlue.svg"
   inkscape:version="0.92.2 5c3e80d, 2017-08-06">
  <metadata
     id="metadata20">
    <rdf:RDF>
      <cc:Work
         rdf:about="">
        <dc:format>image/svg+xml</dc:format>
        <dc:type
           rdf:resource="http://purl.org/dc/dcmitype/StillImage" />
      </cc:Work>
    </rdf:RDF>
  </metadata>
  <sodipodi:namedview
     pagecolor="#ffffff"
     bordercolor="#666666"
     borderopacity="1"
     objecttolerance="10"
     gridtolerance="10"
     guidetolerance="10"
     inkscape:pageopacity="0"
     inkscape:pageshadow="2"
     inkscape:window-width="1667"
     inkscape:window-height="980"
     id="namedview18"
     showgrid="false"
     inkscape:zoom="0.59"
     inkscape:cx="200"
     inkscape:cy="200"
     inkscape:window-x="1920"
     inkscape:window-y="0"
     inkscape:window-maximized="0"
     inkscape:current-layer="svg16" />
  <defs
     id="defs4">
    <style
       id="style2">.cls-1{fill:#1da1f2;}.cls-2{fill:#fff;}.cls-3{fill:none;}</style>
  </defs>
  <title
     id="title6">Twitter_Logo_White-on-Blue</title>
  <circle
     style="opacity:1;fill:#00b8bd;fill-opacity:1;stroke:none;stroke-width:14.58809853;stroke-miterlimit:4;stroke-dasharray:none;stroke-opacity:1"
     id="path829"
     cx="211.86441"
     cy="193.22034"
     r="184.74576" />
  <path
     style="fill:#ff7444;fill-opacity:1"
     inkscape:connector-curvature="0"
     id="path11"
     d="m 173.48441,296.81034 c 94.34,0 145.94,-78.16 145.94,-145.94 0,-2.22 0,-4.43 -0.15,-6.63 a 104.36,104.36 0 0 0 25.58999,-26.55 102.38,102.38 0 0 1 -29.45999,8.07 51.47,51.47 0 0 0 22.54999,-28.37 102.79,102.79 0 0 1 -32.56999,12.45 51.34,51.34 0 0 0 -87.41,46.78 145.62,145.62 0 0 1 -105.71001,-53.59 51.33,51.33 0 0 0 15.88,68.47 50.91,50.91 0 0 1 -23.28,-6.42 c 0,0.21 0,0.43 0,0.65 a 51.31,51.31 0 0 0 41.15001,50.28 51.21,51.21 0 0 1 -23.16001,0.88 51.35,51.35 0 0 0 47.92001,35.62 102.92,102.92 0 0 1 -63.70001,22 104.41,104.41 0 0 1 -12.209996,-0.74 145.21,145.21 0 0 0 78.620006,23"
     class="cls-2" />
  <rect
     style="fill:none"
     y="0"
     x="0"
     id="rect13"
     height="400"
     width="400"
     class="cls-3" />
</svg>
